<?xml version="1.0" encoding="UTF-8" standalone="no"?>
<!-- Uploaded to: SVG Repo, www.svgrepo.com, Generator: SVG Repo Mixer Tools -->

<svg
   height="800px"
   width="800px"
   version="1.1"
   id="Capa_1"
   viewBox="0 0 525.325 525.325"
   xml:space="preserve"
   sodipodi:docname="method-cube.svg"
   inkscape:version="1.4.2 (f4327f4, 2025-05-13)"
   xmlns:inkscape="http://www.inkscape.org/namespaces/inkscape"
   xmlns:sodipodi="http://sodipodi.sourceforge.net/DTD/sodipodi-0.dtd"
   xmlns="http://www.w3.org/2000/svg"
   xmlns:svg="http://www.w3.org/2000/svg"><defs
   id="defs1" /><sodipodi:namedview
   id="namedview1"
   pagecolor="#505050"
   bordercolor="#eeeeee"
   borderopacity="1"
   inkscape:showpageshadow="0"
   inkscape:pageopacity="0"
   inkscape:pagecheckerboard="0"
   inkscape:deskcolor="#505050"
   inkscape:zoom="1.031492"
   inkscape:cx="402.81456"
   inkscape:cy="390.21145"
   inkscape:window-width="2560"
   inkscape:window-height="1369"
   inkscape:window-x="-8"
   inkscape:window-y="-8"
   inkscape:window-maximized="1"
   inkscape:current-layer="g1" />
<g
   id="g1"
   transform="matrix(1.0007541,0,0,0.96334492,-0.19807395,9.6729914)">
	
<path
   id="path2"
   style="fill:#322936;stroke-width:19.6997;stroke-linecap:round;stroke-linejoin:round"
   transform="matrix(0.11029462,-1.6488495,1.7174008,0.10885639,75.060033,330.78755)"
   d="m 196.71193,95.491228 c 0.10538,1.469263 -49.1559,131.900932 -50.37563,132.726822 -1.21973,0.82589 -159.563072,10.96467 -160.888179,10.3213 -1.325107,-0.64338 -82.483497,-120.50396 -82.588872,-121.97322 -0.105374,-1.46926 63.117739,-131.684781 64.337471,-132.51067 1.219732,-0.825889 160.93366,-12.165503 162.25877,-11.522128 1.32511,0.643375 67.15107,121.488632 67.25644,122.957896 z"
   sodipodi:nodetypes="sssssss" /><path
   style="display:inline;fill:#b065cb;fill-opacity:1;stroke:#b065cb;stroke-width:19.6997;stroke-dasharray:none;stroke-opacity:1"
   d="M 494.23,89.943 265.622,0.528 C 265.24,0.374 264.85,0.414 264.46,0.325 263.858,0.179 263.272,0 262.646,0 c -0.65,0 -1.244,0.179 -1.861,0.333 -0.366,0.089 -0.732,0.057 -1.089,0.195 l -0.309,0.122 v 0 L 31.08,89.943 c -3.804,1.496 -5.706,5.527 -4.804,9.397 -0.219,0.732 -0.358,1.496 -0.358,2.284 v 293.645 c 0,2.999 1.658,5.763 4.3,7.178 l 228.616,121.929 c 0.374,0.195 0.772,0.309 1.162,0.447 0.203,0.073 0.398,0.171 0.61,0.228 0.675,0.171 1.366,0.276 2.057,0.276 0.691,0 1.382,-0.106 2.057,-0.276 0.211,-0.057 0.406,-0.163 0.61,-0.228 0.39,-0.138 0.788,-0.244 1.162,-0.447 L 495.108,402.447 c 2.65,-1.414 4.3,-4.178 4.3,-7.178 V 101.623 c 0,-0.788 -0.146,-1.544 -0.358,-2.284 0.894,-3.861 -1.008,-7.901 -4.82,-9.396 z M 262.655,198.345 49.946,100.022 262.663,16.834 475.372,100.022 Z m -220.488,-84 212.359,98.153 V 503.647 L 42.167,390.399 Z M 483.142,390.399 270.783,503.647 v -291.15 l 212.359,-98.153 z"
   id="path1" /></g>
</svg>
